<svg width="211" height="19" viewBox="0 0 211 19" fill="none" xmlns="http://www.w3.org/2000/svg">
<path d="M6.36906 18.288C4.96106 18.288 3.76106 18.032 2.76906 17.52C1.79306 17.008 0.953063 16.32 0.249063 15.456L2.12106 13.704C2.71306 14.424 3.36106 14.968 4.06506 15.336C4.78506 15.704 5.60106 15.888 6.51306 15.888C7.58506 15.888 8.39306 15.648 8.93706 15.168C9.48106 14.688 9.75306 14.04 9.75306 13.224C9.75306 12.568 9.56106 12.048 9.17706 11.664C8.79306 11.28 8.11306 10.992 7.13706 10.8L5.64906 10.536C4.01706 10.232 2.79306 9.696 1.97706 8.928C1.16106 8.16 0.753063 7.104 0.753063 5.76C0.753063 5.024 0.889063 4.36 1.16106 3.768C1.44906 3.16 1.84106 2.656 2.33706 2.256C2.84906 1.84 3.46506 1.52 4.18506 1.296C4.90506 1.072 5.71306 0.959999 6.60906 0.959999C7.87306 0.959999 8.96906 1.184 9.89706 1.632C10.8251 2.064 11.6171 2.696 12.2731 3.528L10.3771 5.208C9.94506 4.648 9.41706 4.2 8.79306 3.864C8.16906 3.528 7.39306 3.36 6.46506 3.36C5.50506 3.36 4.76106 3.552 4.23306 3.936C3.70506 4.32 3.44106 4.88 3.44106 5.616C3.44106 6.32 3.65706 6.848 4.08906 7.2C4.52106 7.536 5.19306 7.792 6.10506 7.968L7.59306 8.28C9.27306 8.6 10.4971 9.144 11.2651 9.912C12.0491 10.68 12.4411 11.736 12.4411 13.08C12.4411 13.864 12.3051 14.576 12.0331 15.216C11.7611 15.856 11.3611 16.408 10.8331 16.872C10.3211 17.32 9.68906 17.672 8.93706 17.928C8.18506 18.168 7.32906 18.288 6.36906 18.288ZM20.3288 18.288C19.4328 18.288 18.6328 18.136 17.9288 17.832C17.2248 17.528 16.6328 17.096 16.1528 16.536C15.6728 15.96 15.3048 15.272 15.0488 14.472C14.7928 13.656 14.6648 12.752 14.6648 11.76C14.6648 10.768 14.7928 9.872 15.0488 9.072C15.3048 8.256 15.6728 7.568 16.1528 7.008C16.6328 6.432 17.2248 5.992 17.9288 5.688C18.6328 5.384 19.4328 5.232 20.3288 5.232C21.5768 5.232 22.6008 5.512 23.4008 6.072C24.2008 6.632 24.7848 7.376 25.1528 8.304L22.9928 9.312C22.8168 8.736 22.5048 8.28 22.0568 7.944C21.6248 7.592 21.0488 7.416 20.3288 7.416C19.3688 7.416 18.6408 7.72 18.1448 8.328C17.6648 8.92 17.4248 9.696 17.4248 10.656V12.888C17.4248 13.848 17.6648 14.632 18.1448 15.24C18.6408 15.832 19.3688 16.128 20.3288 16.128C21.0968 16.128 21.7048 15.944 22.1528 15.576C22.6168 15.192 22.9848 14.688 23.2568 14.064L25.2488 15.12C24.8328 16.144 24.2088 16.928 23.3768 17.472C22.5448 18.016 21.5288 18.288 20.3288 18.288ZM36.8832 18C36.1952 18 35.6672 17.808 35.2992 17.424C34.9312 17.024 34.7072 16.52 34.6272 15.912H34.5072C34.2672 16.696 33.8272 17.288 33.1872 17.688C32.5472 18.088 31.7712 18.288 30.8592 18.288C29.5632 18.288 28.5632 17.952 27.8592 17.28C27.1712 16.608 26.8272 15.704 26.8272 14.568C26.8272 13.32 27.2752 12.384 28.1712 11.76C29.0832 11.136 30.4112 10.824 32.1552 10.824H34.4112V9.768C34.4112 9 34.2032 8.408 33.7872 7.992C33.3712 7.576 32.7232 7.368 31.8432 7.368C31.1072 7.368 30.5072 7.528 30.0432 7.848C29.5792 8.168 29.1872 8.576 28.8672 9.072L27.3072 7.656C27.7232 6.952 28.3072 6.376 29.0592 5.928C29.8112 5.464 30.7952 5.232 32.0112 5.232C33.6272 5.232 34.8672 5.608 35.7312 6.36C36.5952 7.112 37.0272 8.192 37.0272 9.6V15.864H38.3472V18H36.8832ZM31.6032 16.296C32.4192 16.296 33.0912 16.12 33.6192 15.768C34.1472 15.4 34.4112 14.912 34.4112 14.304V12.504H32.2032C30.3952 12.504 29.4912 13.064 29.4912 14.184V14.616C29.4912 15.176 29.6752 15.6 30.0432 15.888C30.4272 16.16 30.9472 16.296 31.6032 16.296ZM40.9111 18V5.52H43.5271V7.584H43.6471C43.9191 6.912 44.3271 6.352 44.8711 5.904C45.4311 5.456 46.1911 5.232 47.1511 5.232C48.4311 5.232 49.4231 5.656 50.1271 6.504C50.8471 7.336 51.2071 8.528 51.2071 10.08V18H48.5911V10.416C48.5911 8.464 47.8071 7.488 46.2391 7.488C45.9031 7.488 45.5671 7.536 45.2311 7.632C44.9111 7.712 44.6231 7.84 44.3671 8.016C44.1111 8.192 43.9031 8.416 43.7431 8.688C43.5991 8.96 43.5271 9.28 43.5271 9.648V18H40.9111ZM63.9608 18C63.0488 18 62.3608 17.768 61.8968 17.304C61.4328 16.824 61.2008 16.152 61.2008 15.288V7.656H59.2568V5.52H60.3128C60.7448 5.52 61.0408 5.424 61.2008 5.232C61.3768 5.04 61.4648 4.728 61.4648 4.296V2.112H63.8168V5.52H66.4328V7.656H63.8168V15.864H66.2408V18H63.9608ZM74.0727 18.288C73.2087 18.288 72.4167 18.136 71.6967 17.832C70.9927 17.528 70.3927 17.096 69.8967 16.536C69.4007 15.96 69.0167 15.272 68.7447 14.472C68.4727 13.656 68.3367 12.752 68.3367 11.76C68.3367 10.768 68.4727 9.872 68.7447 9.072C69.0167 8.256 69.4007 7.568 69.8967 7.008C70.3927 6.432 70.9927 5.992 71.6967 5.688C72.4167 5.384 73.2087 5.232 74.0727 5.232C74.9367 5.232 75.7207 5.384 76.4247 5.688C77.1447 5.992 77.7527 6.432 78.2487 7.008C78.7447 7.568 79.1287 8.256 79.4007 9.072C79.6727 9.872 79.8087 10.768 79.8087 11.76C79.8087 12.752 79.6727 13.656 79.4007 14.472C79.1287 15.272 78.7447 15.96 78.2487 16.536C77.7527 17.096 77.1447 17.528 76.4247 17.832C75.7207 18.136 74.9367 18.288 74.0727 18.288ZM74.0727 16.128C74.9687 16.128 75.6887 15.856 76.2327 15.312C76.7767 14.752 77.0487 13.92 77.0487 12.816V10.704C77.0487 9.6 76.7767 8.776 76.2327 8.232C75.6887 7.672 74.9687 7.392 74.0727 7.392C73.1767 7.392 72.4567 7.672 71.9127 8.232C71.3687 8.776 71.0967 9.6 71.0967 10.704V12.816C71.0967 13.92 71.3687 14.752 71.9127 15.312C72.4567 15.856 73.1767 16.128 74.0727 16.128ZM91.1074 18L86.8594 5.52H89.4514L91.3474 11.208L92.6194 15.576H92.7634L94.0354 11.208L95.9794 5.52H98.4754L94.1794 18H91.1074ZM101.997 3.288C101.453 3.288 101.053 3.16 100.797 2.904C100.557 2.648 100.437 2.32 100.437 1.92V1.512C100.437 1.112 100.557 0.783999 100.797 0.527999C101.053 0.271999 101.453 0.144 101.997 0.144C102.541 0.144 102.933 0.271999 103.173 0.527999C103.413 0.783999 103.533 1.112 103.533 1.512V1.92C103.533 2.32 103.413 2.648 103.173 2.904C102.933 3.16 102.541 3.288 101.997 3.288ZM100.677 5.52H103.293V18H100.677V5.52ZM111.924 18.288C111.028 18.288 110.228 18.136 109.524 17.832C108.82 17.528 108.22 17.096 107.724 16.536C107.228 15.96 106.844 15.272 106.572 14.472C106.316 13.656 106.188 12.752 106.188 11.76C106.188 10.768 106.316 9.872 106.572 9.072C106.844 8.256 107.228 7.568 107.724 7.008C108.22 6.432 108.82 5.992 109.524 5.688C110.228 5.384 111.028 5.232 111.924 5.232C112.836 5.232 113.636 5.392 114.324 5.712C115.028 6.032 115.612 6.48 116.076 7.056C116.54 7.616 116.884 8.272 117.108 9.024C117.348 9.776 117.468 10.584 117.468 11.448V12.432H108.9V12.84C108.9 13.8 109.18 14.592 109.74 15.216C110.316 15.824 111.132 16.128 112.188 16.128C112.956 16.128 113.604 15.96 114.132 15.624C114.66 15.288 115.108 14.832 115.476 14.256L117.012 15.768C116.548 16.536 115.876 17.152 114.996 17.616C114.116 18.064 113.092 18.288 111.924 18.288ZM111.924 7.272C111.476 7.272 111.06 7.352 110.676 7.512C110.308 7.672 109.988 7.896 109.716 8.184C109.46 8.472 109.26 8.816 109.116 9.216C108.972 9.616 108.9 10.056 108.9 10.536V10.704H114.708V10.464C114.708 9.504 114.46 8.736 113.964 8.16C113.468 7.568 112.788 7.272 111.924 7.272ZM118.999 5.52H121.543L122.815 10.752L123.943 15.48H124.015L125.311 10.752L126.823 5.52H129.175L130.711 10.752L132.031 15.48H132.103L133.207 10.752L134.503 5.52H136.927L133.567 18H130.615L128.983 12.312L127.975 8.808H127.927L126.943 12.312L125.287 18H122.407L118.999 5.52ZM145.091 18V5.52H147.707V7.584H147.827C147.955 7.264 148.107 6.96 148.283 6.672C148.475 6.384 148.699 6.136 148.955 5.928C149.227 5.704 149.539 5.536 149.891 5.424C150.259 5.296 150.683 5.232 151.163 5.232C152.011 5.232 152.763 5.44 153.419 5.856C154.075 6.272 154.555 6.912 154.859 7.776H154.931C155.155 7.072 155.587 6.472 156.227 5.976C156.867 5.48 157.691 5.232 158.699 5.232C159.947 5.232 160.915 5.656 161.603 6.504C162.291 7.336 162.635 8.528 162.635 10.08V18H160.019V10.392C160.019 9.432 159.835 8.712 159.467 8.232C159.099 7.736 158.515 7.488 157.715 7.488C157.379 7.488 157.059 7.536 156.755 7.632C156.451 7.712 156.179 7.84 155.939 8.016C155.715 8.192 155.531 8.416 155.387 8.688C155.243 8.96 155.171 9.272 155.171 9.624V18H152.555V10.392C152.555 8.456 151.795 7.488 150.275 7.488C149.955 7.488 149.635 7.536 149.315 7.632C149.011 7.712 148.739 7.84 148.499 8.016C148.259 8.192 148.067 8.416 147.923 8.688C147.779 8.96 147.707 9.272 147.707 9.624V18H145.091ZM171.151 18.288C170.255 18.288 169.455 18.136 168.751 17.832C168.047 17.528 167.447 17.096 166.951 16.536C166.455 15.96 166.071 15.272 165.799 14.472C165.543 13.656 165.415 12.752 165.415 11.76C165.415 10.768 165.543 9.872 165.799 9.072C166.071 8.256 166.455 7.568 166.951 7.008C167.447 6.432 168.047 5.992 168.751 5.688C169.455 5.384 170.255 5.232 171.151 5.232C172.063 5.232 172.863 5.392 173.551 5.712C174.255 6.032 174.839 6.48 175.303 7.056C175.767 7.616 176.111 8.272 176.335 9.024C176.575 9.776 176.695 10.584 176.695 11.448V12.432H168.127V12.84C168.127 13.8 168.407 14.592 168.967 15.216C169.543 15.824 170.359 16.128 171.415 16.128C172.183 16.128 172.831 15.96 173.359 15.624C173.887 15.288 174.335 14.832 174.703 14.256L176.239 15.768C175.775 16.536 175.103 17.152 174.223 17.616C173.343 18.064 172.319 18.288 171.151 18.288ZM171.151 7.272C170.703 7.272 170.287 7.352 169.903 7.512C169.535 7.672 169.215 7.896 168.943 8.184C168.687 8.472 168.487 8.816 168.343 9.216C168.199 9.616 168.127 10.056 168.127 10.536V10.704H173.935V10.464C173.935 9.504 173.687 8.736 173.191 8.16C172.695 7.568 172.015 7.272 171.151 7.272ZM179.591 18V5.52H182.207V7.584H182.327C182.599 6.912 183.007 6.352 183.551 5.904C184.111 5.456 184.871 5.232 185.831 5.232C187.111 5.232 188.103 5.656 188.807 6.504C189.527 7.336 189.887 8.528 189.887 10.08V18H187.271V10.416C187.271 8.464 186.487 7.488 184.919 7.488C184.583 7.488 184.247 7.536 183.911 7.632C183.591 7.712 183.303 7.84 183.047 8.016C182.791 8.192 182.583 8.416 182.423 8.688C182.279 8.96 182.207 9.28 182.207 9.648V18H179.591ZM201.073 15.936H200.977C200.865 16.24 200.713 16.536 200.521 16.824C200.345 17.112 200.113 17.368 199.825 17.592C199.553 17.8 199.217 17.968 198.817 18.096C198.433 18.224 197.985 18.288 197.473 18.288C196.177 18.288 195.169 17.872 194.449 17.04C193.745 16.208 193.393 15.016 193.393 13.464V5.52H196.009V13.128C196.009 15.064 196.809 16.032 198.409 16.032C198.745 16.032 199.073 15.992 199.393 15.912C199.713 15.816 199.993 15.68 200.233 15.504C200.489 15.328 200.689 15.104 200.833 14.832C200.993 14.56 201.073 14.24 201.073 13.872V5.52H203.689V18H201.073V15.936ZM208.539 13.2L207.699 6.024V1.248H210.531V6.024L209.739 13.2H208.539ZM209.139 18.288C208.531 18.288 208.083 18.144 207.795 17.856C207.523 17.552 207.387 17.168 207.387 16.704V16.296C207.387 15.832 207.523 15.456 207.795 15.168C208.083 14.864 208.531 14.712 209.139 14.712C209.747 14.712 210.187 14.864 210.459 15.168C210.747 15.456 210.891 15.832 210.891 16.296V16.704C210.891 17.168 210.747 17.552 210.459 17.856C210.187 18.144 209.747 18.288 209.139 18.288Z" fill="replace_color"/>
</svg>
