<svg width="241" height="31" viewBox="0 0 241 31" fill="none" xmlns="http://www.w3.org/2000/svg">
<path d="M5.01166 22.24C3.71566 22.24 2.67566 21.92 1.89166 21.28C1.12366 20.64 0.739656 19.672 0.739656 18.376C0.739656 17.144 1.10766 16.192 1.84366 15.52C2.59566 14.848 3.65166 14.512 5.01166 14.512H9.09166V13.504C9.09166 12.576 8.83566 11.872 8.32366 11.392C7.82766 10.912 7.05166 10.672 5.99566 10.672C5.05166 10.672 4.27566 10.872 3.66766 11.272C3.07566 11.672 2.58766 12.176 2.20366 12.784L0.523656 11.32C1.03566 10.504 1.73166 9.84 2.61166 9.328C3.50766 8.8 4.69166 8.536 6.16366 8.536C7.68366 8.536 8.89166 8.832 9.78766 9.424C9.93166 8.56 10.4757 8.128 11.4197 8.128H14.3717V10.408H10.7957V10.456C11.4037 11.24 11.7077 12.224 11.7077 13.408V22H9.09166V16.264H5.80366C5.03566 16.264 4.44366 16.424 4.02766 16.744C3.62766 17.064 3.42766 17.528 3.42766 18.136V18.616C3.42766 19.224 3.61166 19.704 3.97966 20.056C4.34766 20.408 4.85166 20.584 5.49166 20.584C5.81166 20.584 6.06766 20.56 6.25966 20.512L6.47566 22.096C6.33166 22.128 6.10766 22.16 5.80366 22.192C5.49966 22.224 5.23566 22.24 5.01166 22.24ZM25.962 22C25.05 22 24.378 21.768 23.946 21.304C23.514 20.84 23.298 20.192 23.298 19.36V8.824H25.914V19.864H27.786V22H25.962ZM19.53 22C18.618 22 17.946 21.768 17.514 21.304C17.082 20.84 16.866 20.192 16.866 19.36V8.824H19.482V19.864H21.354V22H19.53ZM31.5753 14.728L29.5113 13.864C29.5753 13.08 29.7673 12.36 30.0873 11.704C30.4233 11.048 30.8633 10.488 31.4073 10.024C31.9513 9.544 32.5913 9.176 33.3273 8.92C34.0633 8.664 34.8633 8.536 35.7273 8.536C37.6313 8.536 39.1113 9.024 40.1673 10C41.2233 10.96 41.7513 12.264 41.7513 13.912V22H39.1353V14.248C39.1353 13.096 38.8233 12.216 38.1993 11.608C37.5753 10.984 36.7193 10.672 35.6313 10.672C34.7513 10.672 33.9753 10.872 33.3033 11.272C32.6473 11.656 32.1993 12.176 31.9593 12.832L32.9913 13.24C33.4393 13.416 33.7513 13.624 33.9273 13.864C34.1033 14.088 34.1913 14.424 34.1913 14.872V22H31.5753V14.728ZM49.5759 22.288C48.1999 22.288 47.1359 21.848 46.3839 20.968C45.6319 20.072 45.2559 18.808 45.2559 17.176V8.824H47.8719V16.888C47.8719 17.912 48.0799 18.696 48.4959 19.24C48.9279 19.768 49.6159 20.032 50.5599 20.032C50.9119 20.032 51.2639 19.992 51.6159 19.912C51.9679 19.816 52.2799 19.672 52.5519 19.48C52.8399 19.288 53.0639 19.048 53.2239 18.76C53.3999 18.456 53.4879 18.104 53.4879 17.704V8.824H56.1039V19.864H57.4959V22H55.7679C55.0959 22 54.5919 21.808 54.2559 21.424C53.9199 21.024 53.7359 20.472 53.7039 19.768H53.5839C53.3119 20.504 52.8399 21.112 52.1679 21.592C51.5119 22.056 50.6479 22.288 49.5759 22.288ZM65.3004 22.288C63.4764 22.288 62.0604 21.68 61.0524 20.464C60.0444 19.232 59.5404 17.544 59.5404 15.4C59.5404 14.36 59.6844 13.416 59.9724 12.568C60.2764 11.72 60.7004 11 61.2444 10.408C61.8044 9.8 62.4764 9.336 63.2604 9.016C64.0444 8.696 64.9244 8.536 65.9004 8.536C66.7964 8.536 67.6124 8.672 68.3484 8.944C69.0844 9.2 69.7084 9.568 70.2204 10.048C70.7484 10.528 71.1484 11.112 71.4204 11.8C71.7084 12.472 71.8524 13.224 71.8524 14.056V22H69.2364V14.272C69.2364 13.136 68.9324 12.256 68.3244 11.632C67.7164 10.992 66.8844 10.672 65.8284 10.672C64.7244 10.672 63.8604 11.016 63.2364 11.704C62.6284 12.392 62.3244 13.328 62.3244 14.512V16.264C62.3244 17.528 62.5964 18.496 63.1404 19.168C63.7004 19.824 64.5484 20.152 65.6844 20.152C66.0364 20.152 66.3644 20.12 66.6684 20.056L66.9804 22.12C66.7404 22.184 66.4524 22.224 66.1164 22.24C65.7964 22.272 65.5244 22.288 65.3004 22.288ZM68.2633 30.472C67.0793 30.472 66.2153 30.192 65.6713 29.632C65.1113 29.088 64.8313 28.384 64.8313 27.52V26.464H63.2713V24.616H65.2153C65.8233 24.616 66.2633 24.744 66.5353 25C66.8073 25.256 66.9433 25.6 66.9433 26.032V27.064C66.9433 27.576 67.0473 27.968 67.2553 28.24C67.4633 28.512 67.7993 28.648 68.2633 28.648C68.7273 28.648 69.0633 28.512 69.2713 28.24C69.4793 27.968 69.5833 27.576 69.5833 27.064V24.616H71.8633V27.112C71.8633 28.088 71.5753 28.888 70.9993 29.512C70.4073 30.152 69.4953 30.472 68.2633 30.472ZM78.7097 22C77.7977 22 77.1257 21.768 76.6937 21.304C76.2617 20.84 76.0457 20.192 76.0457 19.36V8.824H78.6617V19.864H80.5337V22H78.7097ZM89.7332 22.288C89.1732 22.288 88.6772 22.216 88.2452 22.072C87.8292 21.944 87.4692 21.768 87.1652 21.544C86.8612 21.304 86.6052 21.04 86.3972 20.752C86.1892 20.448 86.0292 20.136 85.9172 19.816H85.7972V22H83.1812V8.824H85.7972V17.704C85.7972 18.104 85.8852 18.456 86.0612 18.76C86.2372 19.048 86.4612 19.288 86.7332 19.48C87.0052 19.672 87.3172 19.816 87.6692 19.912C88.0212 19.992 88.3812 20.032 88.7492 20.032C89.7572 20.032 90.4692 19.76 90.8852 19.216C91.3172 18.656 91.5332 17.88 91.5332 16.888V8.824H94.1492V17.176C94.1492 18.824 93.7652 20.088 92.9972 20.968C92.2292 21.848 91.1412 22.288 89.7332 22.288ZM101.959 22.288C100.583 22.288 99.5187 21.848 98.7667 20.968C98.0147 20.072 97.6387 18.808 97.6387 17.176V8.824H100.255V16.888C100.255 17.912 100.463 18.696 100.879 19.24C101.311 19.768 101.999 20.032 102.943 20.032C103.295 20.032 103.647 19.992 103.999 19.912C104.351 19.816 104.663 19.672 104.935 19.48C105.223 19.288 105.447 19.048 105.607 18.76C105.783 18.456 105.871 18.104 105.871 17.704V8.824H108.487V19.864H109.879V22H108.151C107.479 22 106.975 21.808 106.639 21.424C106.303 21.024 106.119 20.472 106.087 19.768H105.967C105.695 20.504 105.223 21.112 104.551 21.592C103.895 22.056 103.031 22.288 101.959 22.288ZM104.896 30.472C103.712 30.472 102.848 30.192 102.304 29.632C101.744 29.088 101.464 28.384 101.464 27.52V26.464H99.9041V24.616H101.848C102.456 24.616 102.896 24.744 103.168 25C103.44 25.256 103.576 25.6 103.576 26.032V27.064C103.576 27.576 103.68 27.968 103.888 28.24C104.096 28.512 104.432 28.648 104.896 28.648C105.36 28.648 105.696 28.512 105.904 28.24C106.112 27.968 106.216 27.576 106.216 27.064V24.616H108.496V27.112C108.496 28.088 108.208 28.888 107.632 29.512C107.04 30.152 106.128 30.472 104.896 30.472ZM117.731 22.288C116.931 22.288 116.179 22.176 115.475 21.952C114.787 21.712 114.187 21.392 113.675 20.992C113.179 20.576 112.787 20.08 112.499 19.504C112.211 18.928 112.067 18.288 112.067 17.584V16.384C112.067 15.824 112.195 15.392 112.451 15.088C112.707 14.768 113.171 14.608 113.843 14.608H116.531V16.672H114.539V17.392C114.539 18.352 114.835 19.056 115.427 19.504C116.035 19.936 116.843 20.152 117.851 20.152C118.891 20.152 119.691 19.832 120.251 19.192C120.827 18.552 121.115 17.648 121.115 16.48V14.416C121.115 13.232 120.795 12.312 120.155 11.656C119.531 11 118.643 10.672 117.491 10.672C116.531 10.672 115.707 10.872 115.019 11.272C114.347 11.672 113.835 12.152 113.483 12.712L111.851 11.248C112.315 10.48 113.027 9.84 113.987 9.328C114.947 8.8 116.155 8.536 117.611 8.536C119.595 8.536 121.139 9.144 122.243 10.36C123.347 11.56 123.899 13.24 123.899 15.4C123.899 16.456 123.763 17.416 123.491 18.28C123.219 19.128 122.819 19.848 122.291 20.44C121.763 21.032 121.115 21.488 120.347 21.808C119.579 22.128 118.707 22.288 117.731 22.288ZM132.487 13.072C132.487 12.304 132.287 11.712 131.887 11.296C131.487 10.88 130.855 10.672 129.991 10.672C129.255 10.672 128.663 10.832 128.215 11.152C127.767 11.456 127.383 11.856 127.063 12.352L125.479 10.96C125.911 10.24 126.495 9.656 127.231 9.208C127.967 8.76 128.943 8.536 130.159 8.536C131.759 8.536 132.983 8.912 133.831 9.664C134.679 10.416 135.103 11.496 135.103 12.904V22H132.487V13.072ZM138.727 8.824H141.343V12.808L144.703 12.328C145.311 12.232 145.783 12.056 146.119 11.8C146.471 11.528 146.687 11.064 146.767 10.408L146.935 8.824H149.647L149.455 10.48C149.375 11.232 149.087 11.856 148.591 12.352C148.111 12.832 147.463 13.12 146.647 13.216V13.336C147.127 13.432 147.535 13.608 147.871 13.864C148.207 14.12 148.479 14.424 148.687 14.776C148.911 15.128 149.079 15.52 149.191 15.952C149.303 16.384 149.383 16.824 149.431 17.272L149.887 22H147.175L146.767 17.08C146.719 16.68 146.631 16.312 146.503 15.976C146.391 15.64 146.223 15.36 145.999 15.136C145.775 14.896 145.495 14.728 145.159 14.632C144.823 14.52 144.423 14.496 143.959 14.56L141.343 14.92V22H138.727V8.824ZM158.948 13.072C158.948 12.304 158.748 11.712 158.348 11.296C157.948 10.88 157.316 10.672 156.452 10.672C155.716 10.672 155.124 10.832 154.676 11.152C154.228 11.456 153.844 11.856 153.524 12.352L151.94 10.96C152.372 10.24 152.956 9.656 153.692 9.208C154.428 8.76 155.404 8.536 156.62 8.536C158.22 8.536 159.444 8.912 160.292 9.664C161.14 10.416 161.564 11.496 161.564 12.904V22H158.948V13.072ZM169.892 22.288C168.66 22.288 167.612 22.08 166.748 21.664C165.9 21.232 165.156 20.632 164.516 19.864L166.172 18.304C166.652 18.912 167.212 19.376 167.852 19.696C168.492 20.016 169.22 20.176 170.036 20.176C170.9 20.176 171.54 20.024 171.956 19.72C172.388 19.4 172.604 18.952 172.604 18.376C172.604 17.864 172.436 17.472 172.1 17.2C171.78 16.912 171.268 16.72 170.564 16.624L169.34 16.456C168.748 16.376 168.188 16.248 167.66 16.072C167.132 15.896 166.668 15.656 166.268 15.352C165.884 15.048 165.572 14.672 165.332 14.224C165.108 13.776 164.996 13.224 164.996 12.568C164.996 11.928 165.116 11.36 165.356 10.864C165.596 10.352 165.932 9.928 166.364 9.592C166.796 9.24 167.308 8.976 167.9 8.8C168.508 8.624 169.172 8.536 169.892 8.536C171.092 8.536 172.076 8.72 172.844 9.088C173.612 9.44 174.292 9.936 174.884 10.576L173.3 12.16C172.932 11.744 172.46 11.392 171.884 11.104C171.308 10.816 170.644 10.672 169.892 10.672C169.108 10.672 168.516 10.824 168.116 11.128C167.716 11.432 167.516 11.848 167.516 12.376C167.516 12.936 167.7 13.352 168.068 13.624C168.436 13.896 168.98 14.08 169.7 14.176L170.924 14.368C171.548 14.464 172.116 14.6 172.628 14.776C173.156 14.952 173.604 15.192 173.972 15.496C174.34 15.784 174.62 16.144 174.812 16.576C175.02 17.008 175.124 17.528 175.124 18.136C175.124 18.76 174.996 19.328 174.74 19.84C174.5 20.352 174.148 20.792 173.684 21.16C173.236 21.512 172.684 21.792 172.028 22C171.388 22.192 170.676 22.288 169.892 22.288ZM181.46 22C180.548 22 179.868 21.768 179.42 21.304C178.988 20.84 178.772 20.192 178.772 19.36V6.304C178.772 5.824 178.836 5.4 178.964 5.032C179.092 4.664 179.26 4.352 179.468 4.096C179.676 3.824 179.916 3.6 180.188 3.424C180.476 3.248 180.772 3.112 181.076 3.016V2.92H175.868V0.831999H183.884V2.92H183.596C182.892 2.92 182.348 3.128 181.964 3.544C181.58 3.944 181.388 4.52 181.388 5.272V19.864H183.26V22H181.46ZM190.996 22.288C189.172 22.288 187.756 21.68 186.748 20.464C185.74 19.232 185.236 17.544 185.236 15.4C185.236 14.36 185.38 13.416 185.668 12.568C185.972 11.72 186.396 11 186.94 10.408C187.5 9.8 188.172 9.336 188.956 9.016C189.74 8.696 190.62 8.536 191.596 8.536C192.492 8.536 193.308 8.672 194.044 8.944C194.78 9.2 195.404 9.568 195.916 10.048C196.444 10.528 196.844 11.112 197.116 11.8C197.404 12.472 197.548 13.224 197.548 14.056V22H194.932V14.272C194.932 13.136 194.628 12.256 194.02 11.632C193.412 10.992 192.58 10.672 191.524 10.672C190.42 10.672 189.556 11.016 188.932 11.704C188.324 12.392 188.02 13.328 188.02 14.512V16.264C188.02 17.528 188.292 18.496 188.836 19.168C189.396 19.824 190.244 20.152 191.38 20.152C191.732 20.152 192.06 20.12 192.364 20.056L192.676 22.12C192.436 22.184 192.148 22.224 191.812 22.24C191.492 22.272 191.22 22.288 190.996 22.288ZM193.239 4.408H194.943V3.568C194.943 3.216 194.871 2.968 194.727 2.824C194.567 2.664 194.287 2.584 193.887 2.584H193.239V0.711999H194.847C195.615 0.711999 196.199 0.879999 196.599 1.216C196.983 1.536 197.175 1.976 197.175 2.536C197.175 2.872 197.087 3.208 196.911 3.544C196.719 3.864 196.439 4.112 196.071 4.288V4.408H200.391V6.28H193.239V4.408ZM204.405 22C203.493 22 202.821 21.768 202.389 21.304C201.957 20.84 201.741 20.192 201.741 19.36V8.824H204.357V19.864H206.229V22H204.405ZM212.644 22.24C211.348 22.24 210.308 21.92 209.524 21.28C208.756 20.64 208.372 19.672 208.372 18.376C208.372 17.144 208.74 16.192 209.476 15.52C210.228 14.848 211.284 14.512 212.644 14.512H216.724V13.504C216.724 12.576 216.468 11.872 215.956 11.392C215.46 10.912 214.684 10.672 213.628 10.672C212.684 10.672 211.908 10.872 211.3 11.272C210.708 11.672 210.22 12.176 209.836 12.784L208.156 11.32C208.668 10.504 209.364 9.84 210.244 9.328C211.14 8.8 212.324 8.536 213.796 8.536C215.604 8.536 216.98 8.96 217.924 9.808C218.868 10.64 219.34 11.84 219.34 13.408V22H216.724V16.264H213.436C212.668 16.264 212.076 16.424 211.66 16.744C211.26 17.064 211.06 17.528 211.06 18.136V18.616C211.06 19.224 211.244 19.704 211.612 20.056C211.98 20.408 212.484 20.584 213.124 20.584C213.444 20.584 213.7 20.56 213.892 20.512L214.108 22.096C213.964 22.128 213.74 22.16 213.436 22.192C213.132 22.224 212.868 22.24 212.644 22.24ZM227.834 22.288C226.17 22.288 224.874 21.944 223.946 21.256C223.018 20.568 222.554 19.6 222.554 18.352C222.554 17.584 222.778 16.928 223.226 16.384C223.69 15.84 224.282 15.464 225.002 15.256V15.136C224.202 14.944 223.578 14.568 223.13 14.008C222.682 13.448 222.458 12.76 222.458 11.944C222.458 10.92 222.786 10.096 223.442 9.472C224.114 8.848 225.026 8.536 226.178 8.536C226.53 8.536 226.906 8.568 227.306 8.632C227.722 8.696 228.098 8.816 228.434 8.992L227.882 10.912C227.514 10.736 227.106 10.648 226.658 10.648C226.098 10.648 225.65 10.8 225.314 11.104C224.994 11.408 224.834 11.816 224.834 12.328C224.834 12.568 224.866 12.8 224.93 13.024C224.994 13.232 225.106 13.424 225.266 13.6C225.426 13.76 225.642 13.888 225.914 13.984C226.186 14.08 226.53 14.128 226.946 14.128H228.266V15.904H227.138C226.61 15.904 226.154 16.056 225.77 16.36C225.386 16.664 225.194 17.088 225.194 17.632V18.184C225.194 18.824 225.402 19.312 225.818 19.648C226.234 19.984 226.922 20.152 227.882 20.152C228.89 20.152 229.682 19.888 230.258 19.36C230.85 18.816 231.146 18.04 231.146 17.032V8.824H233.762V17.392C233.762 18.144 233.618 18.824 233.33 19.432C233.058 20.024 232.658 20.536 232.13 20.968C231.618 21.384 230.994 21.712 230.258 21.952C229.538 22.176 228.73 22.288 227.834 22.288ZM238.48 17.2L237.64 10.024V5.248H240.472V10.024L239.68 17.2H238.48ZM239.08 22.288C238.472 22.288 238.024 22.144 237.736 21.856C237.464 21.552 237.328 21.168 237.328 20.704V20.296C237.328 19.832 237.464 19.456 237.736 19.168C238.024 18.864 238.472 18.712 239.08 18.712C239.688 18.712 240.128 18.864 240.4 19.168C240.688 19.456 240.832 19.832 240.832 20.296V20.704C240.832 21.168 240.688 21.552 240.4 21.856C240.128 22.144 239.688 22.288 239.08 22.288Z" fill="replace_color"/>
</svg>
